<svg xmlns="http://www.w3.org/2000/svg" width="1536" height="1024" viewBox="0 0 1536 1024">
<style>
    .title { font-family: Arial, sans-serif; font-size: 40px; fill: #000; }
    .axis-label { font-family: Arial, sans-serif; font-size: 28px; fill: #000; }
    .tick { font-family: Arial, sans-serif; font-size: 28px; fill: #000; }
    .value { font-family: Arial, sans-serif; font-size: 22px; fill: #1f2f9b; }
    .grid { stroke: #bdbdbd; stroke-width: 1; stroke-dasharray: 6 4; }
    .axis { stroke: #000; stroke-width: 2; }
    .line { fill: none; stroke: #1f2f9b; stroke-width: 4; }
    .point { fill: #1f2f9b; stroke: #1f2f9b; }
    .best-line { stroke: #ff1f1f; stroke-width: 4; stroke-dasharray: 12 6; }
    .best-text { font-family: Arial, sans-serif; font-size: 28px; fill: #ff1f1f; }
    .note { font-family: Arial, sans-serif; font-size: 24px; fill: #000; }
</style>
<rect width="100%" height="100%" fill="#fff" />
<text x="768.0" y="52" class="title" text-anchor="middle">Elbow Method (Inertia vs Jumlah Cluster)</text>
<line x1="130" y1="760.00" x2="1518" y2="760.00" class="grid" /><line x1="130" y1="621.60" x2="1518" y2="621.60" class="grid" /><line x1="130" y1="483.20" x2="1518" y2="483.20" class="grid" /><line x1="130" y1="344.80" x2="1518" y2="344.80" class="grid" /><line x1="130" y1="206.40" x2="1518" y2="206.40" class="grid" /><line x1="130" y1="68.00" x2="1518" y2="68.00" class="grid" /><line x1="130.00" y1="68" x2="130.00" y2="760" class="grid" /><line x1="592.67" y1="68" x2="592.67" y2="760" class="grid" /><line x1="1055.33" y1="68" x2="1055.33" y2="760" class="grid" /><line x1="1518.00" y1="68" x2="1518.00" y2="760" class="grid" />
<line x1="130" y1="68" x2="130" y2="760" class="axis" />
<line x1="130" y1="760" x2="1518" y2="760" class="axis" />
<text x="98" y="768.00" class="tick" text-anchor="end">7</text><text x="98" y="629.60" class="tick" text-anchor="end">8</text><text x="98" y="491.20" class="tick" text-anchor="end">9</text><text x="98" y="352.80" class="tick" text-anchor="end">10</text><text x="98" y="214.40" class="tick" text-anchor="end">11</text><text x="98" y="76.00" class="tick" text-anchor="end">12</text>
<text x="130.00" y="803" class="tick" text-anchor="middle">2</text><text x="592.67" y="803" class="tick" text-anchor="middle">3</text><text x="1055.33" y="803" class="tick" text-anchor="middle">4</text><text x="1518.00" y="803" class="tick" text-anchor="middle">5</text>
<text x="768.0" y="833" class="axis-label" text-anchor="middle">Jumlah Cluster (K)</text>
<text x="42" y="512.0" class="axis-label" text-anchor="middle" transform="rotate(-90 42 512.0)">Inertia (Within-Cluster Sum of Squares)</text>
<polyline points="130.00,134.97 592.67,389.19 1055.33,577.33 1518.00,693.03" class="line" />
<circle cx="130.00" cy="134.97" r="10" class="point" /><text x="150.00" y="104.97" class="value" text-anchor="middle">11.537289</text><circle cx="592.67" cy="389.19" r="10" class="point" /><text x="592.67" y="359.19" class="value" text-anchor="middle">9.515940</text><circle cx="1055.33" cy="577.33" r="10" class="point" /><text x="1055.33" y="547.33" class="value" text-anchor="middle">8.020000</text><circle cx="1518.00" cy="693.03" r="10" class="point" /><text x="1458.00" y="663.03" class="value" text-anchor="middle">7.100000</text>
<line x1="130.00" y1="68" x2="130.00" y2="760" class="best-line" />
<rect x="154.00" y="103" width="220" height="46" rx="6" fill="#fff" stroke="#ff1f1f" stroke-width="2" />
<text x="172.00" y="135" class="best-text">K Terbaik = 2</text>
<line x1="154.00" y1="126" x2="138.00" y2="126" stroke="#ff1f1f" stroke-width="3" marker-end="url(#arrow)" />
<defs>
    <marker id="arrow" viewBox="0 0 10 10" refX="8" refY="5" markerWidth="8" markerHeight="8" orient="auto-start-reverse">
        <path d="M 0 0 L 10 5 L 0 10 z" fill="#ff1f1f" />
    </marker>
</defs>
<rect x="378" y="875" width="780" height="108" rx="5" fill="#fff" stroke="#1f2f9b" stroke-width="3" />
<text x="402" y="905" class="note">Terjadi penurunan inertia yang mulai melandai setelah k = 2</text><text x="402" y="933" class="note">(titik elbow). Sehingga jumlah cluster terbaik berdasarkan</text><text x="402" y="961" class="note">Elbow Method adalah 2.</text>
</svg>